# xmcd
#
# Track frame offsets:
#	150
#	30804
#	55183
#	65802
#	85741
#	104385
#	115535
#	137992
#	151948
#	165753
#	189904
#	214461
#	232776
#	254933
#	276982
#	303300
#	318406
#
# Disc length: 4471 seconds
#
# Revision: 0
# Processed by: cddbd v1.5.1PL2 Copyright (c) Steve Scherf et al.
# Submitted via: audiograbber 1.81.03
#
DISCID=e3117511
DTITLE=BLUES - MUSIC BOX
DYEAR=1900
DGENRE=
TTITLE0=Gary Moore - Parisienne Walkways
TTITLE1=B.B. King - Darlin' What Happened
TTITLE2=Clarence Henry - but i do
TTITLE3=Grand Funk Railroad - It's A Man's World
TTITLE4=Robert Cray - Move A Mountain
TTITLE5=Alan Jackson - Chattahoochee
TTITLE6=John Campbewll - Wild Streak
TTITLE7=Gary Moore - I'd Loved Another Woman
TTITLE8=La Vern Baker - play it fair
TTITLE9=Mark Knopfler '2004 - el Macho
TTITLE10=Mark Knopfler '2004 - our Shangri-la
TTITLE11=Mark Knopfler '2004 - postcards from Paraguay
TTITLE12=Mark Knopfler '2004 - the trawlerman's song
TTITLE13=Mark Knopfler '2004 - what it is
TTITLE14=Mark Knopfler '2004 - 5 15 am
TTITLE15=Atomic Fireballs - lover lies
TTITLE16=Atomic Fireballs - starve a fever
EXTD=
EXTT0=
EXTT1=
EXTT2=
EXTT3=
EXTT4=
EXTT5=
EXTT6=
EXTT7=
EXTT8=
EXTT9=
EXTT10=
EXTT11=
EXTT12=
EXTT13=
EXTT14=
EXTT15=
EXTT16=
PLAYORDER=
